# xmcd CD database file
#
# Track frame offsets:
#	150
#	8442
#	20322
#	29202
#	40356
#	50701
#	63605
#	74078
#	84511
#	97151
#	107977
#	115300
#	126477
#	137505
#	146693
#
# Disc length: 2233 seconds
#
# Revision: 0
# Processed by: cddbd v1.5.2PL0 Copyright (c) Steve Scherf et al.
# Submitted via: CDex 1.51
#
DISCID=e608b70f
DTITLE=varios - Country Trilogy Collection  cd01
DYEAR=2011
DGENRE=Country
TTITLE0=Johnny Cash/Country Boy
TTITLE1=Kenny Rogers/Me and Bobby McGee
TTITLE2=Freddy Fender /Jambalaya
TTITLE3=Ferlin Husky /San Antonio Rose
TTITLE4=Rick Nelson/Hello, Mary Lou
TTITLE5=Lynn Anderson/Rose Garden
TTITLE6=Patsy Cline/Honky Tonk Merry-Go-Round
TTITLE7=Wanda Jackson/Stupid Cupid
TTITLE8=Kitty Wells /Making Believe
TTITLE9=Guy Mitchell /Singing the Blues
TTITLE10=Jim Reeves/Oklahoma Hills
TTITLE11=Roger Miller/King of the Road
TTITLE12=Don Gibson/Country Green
TTITLE13=Frankie Laine /Rawhide
TTITLE14=Fendermen /Ghost Riders in the Sky
EXTD=YEAR: 2011
EXTT0=
EXTT1=
EXTT2=
EXTT3=
EXTT4=
EXTT5=
EXTT6=
EXTT7=
EXTT8=
EXTT9=
EXTT10=
EXTT11=
EXTT12=
EXTT13=
EXTT14=
PLAYORDER=
